<svg width="176" height="58" viewBox="0 0 176 58" fill="none" xmlns="http://www.w3.org/2000/svg">
<path d="M166 53C166 51.2891 164.644 47.6843 160.6 42.7148C156.753 37.9894 151.054 32.7448 143.873 27.8496C129.498 18.0496 109.711 10 88 10C66.2886 10 46.5024 18.0496 32.127 27.8496C24.9464 32.7448 19.2466 37.9894 15.4004 42.7148C11.3556 47.6843 10 51.2891 10 53C10 55.7614 7.76142 58 5 58C2.23858 58 0 55.7614 0 53C0 47.6693 3.28932 41.7532 7.64453 36.4023C12.1984 30.8075 18.6546 24.9323 26.4941 19.5879C42.1587 8.90892 63.8721 0 88 0C112.128 0 133.841 8.90892 149.506 19.5879C157.345 24.9323 163.802 30.8075 168.355 36.4023C172.711 41.7532 176 47.6693 176 53C176 55.7614 173.761 58 171 58C168.239 58 166 55.7614 166 53Z" fill="black"/>
</svg>
