<svg width="127" height="40" viewBox="0 0 127 40" fill="none" xmlns="http://www.w3.org/2000/svg">
<path d="M79 0C87.2012 0 94.2487 4.93655 97.335 12H119.5C123.642 12 127 15.3579 127 19.5C127 23.6421 123.642 27 119.5 27H97.7393C94.9017 34.5931 87.5829 40 79 40H49C40.4171 40 33.0983 34.5931 30.2607 27H7.5C3.35786 27 0 23.6421 0 19.5C0 15.3579 3.35786 12 7.5 12H30.665C33.7513 4.93655 40.7988 3.58759e-07 49 0H79Z" fill="#6B14EC"/>
<path d="M33.7295 22L34.9443 25.25C37.0757 30.953 42.5714 35 49 35V40C40.4171 40 33.0983 34.5931 30.2607 27H7.5V22H33.7295ZM79 35V40H49V35H79ZM119.5 22V27H97.7393C94.9017 34.5931 87.5829 40 79 40V35C85.4286 35 90.9243 30.953 93.0557 25.25L94.2705 22H119.5ZM122 19.5C122 18.1193 120.881 17 119.5 17H94.0635L92.7529 14.002C90.4335 8.69364 85.1427 5 79 5H49C42.8573 5 37.5665 8.69364 35.2471 14.002L33.9365 17H7.5C6.11929 17 5 18.1193 5 19.5C5 20.8807 6.11929 22 7.5 22V27C3.35786 27 0 23.6421 0 19.5C0 15.3579 3.35786 12 7.5 12H30.665C33.7513 4.93655 40.7988 3.58759e-07 49 0H79C87.2012 0 94.2487 4.93655 97.335 12H119.5C123.642 12 127 15.3579 127 19.5C127 23.6421 123.642 27 119.5 27V22C120.881 22 122 20.8807 122 19.5Z" fill="#0C0219"/>
<path d="M45 20C45 10.6112 52.6112 3 62 3H66C75.3888 3 83 10.6112 83 20C83 29.3888 75.3888 37 66 37H62C52.6112 37 45 29.3888 45 20Z" fill="#2E0645"/>
</svg>
