<svg width="50" height="50" viewBox="0 0 50 50" fill="none" xmlns="http://www.w3.org/2000/svg">
<path d="M50 25C50 38.8071 38.8071 50 25 50C11.1929 50 0 38.8071 0 25C0 11.1929 11.1929 0 25 0C38.8071 0 50 11.1929 50 25Z" fill="#6B14EC"/>
<path d="M45 25C45 13.9543 36.0457 5 25 5C13.9543 5 5 13.9543 5 25C5 36.0457 13.9543 45 25 45V50C11.1929 50 0 38.8071 0 25C0 11.1929 11.1929 0 25 0C38.8071 0 50 11.1929 50 25C50 38.8071 38.8071 50 25 50V45C36.0457 45 45 36.0457 45 25Z" fill="#0C0219"/>
<path d="M24.4999 11L37.3392 20.3283L32.435 35.4217H16.5648L11.6606 20.3283L24.4999 11Z" fill="black"/>
<path d="M35.5 45L32.4346 34.5781H16.5645L14 45L24.5 48L35.5 45ZM15.2012 44.3037L17.3486 35.5781H31.6865L34.2529 44.3037L24.5068 46.9619L15.2012 44.3037Z" fill="black"/>
<path d="M47.0001 19.3907L36.851 19.3912L31.9469 34.4844L40.9116 40.6194L46.9999 32.4999L47.0001 19.3907ZM40.6857 39.2542L33.1294 34.0811L37.5778 20.3902L46.0003 20.3914L45.9998 32.1678L40.6857 39.2542Z" fill="black"/>
<path d="M28.5002 1.49994L24.8845 11.3063L37.7238 20.6345L46 15.0001L39.5 5.4998L28.5002 1.49994ZM44.6097 14.7372L37.7419 19.4116L26.0838 10.9415L29.0943 2.77897L38.856 6.3296L44.6097 14.7372Z" fill="black"/>
<path d="M1.99975 20.3901L12.4569 20.3901L17.361 35.4835L9.49959 41.5002L2.99982 32.4999L1.99975 20.3901ZM9.70801 40.0812L16.1915 35.1201L11.7303 21.3901L3.0857 21.3906L3.9735 32.1404L9.70801 40.0812Z" fill="black"/>
<path d="M21.0006 2.00004L25.1907 12.3062L12.3515 21.6345L4.99987 15.4999L10.5006 6.49993L21.0006 2.00004ZM6.3029 15.2847L12.3942 20.3674L23.9693 11.9576L20.4567 3.31986L11.1873 7.29385L6.3029 15.2847Z" fill="black"/>
</svg>
